
<svg viewBox="0 0 48 11" version="1.1" xmlns="http://www.w3.org/2000/svg" xmlns:xlink="http://www.w3.org/1999/xlink">
    <g id="Page-1" stroke="none" stroke-width="1" fill="none" fill-rule="evenodd">
        <g id="HOMEPAGE-01" transform="translate(-190.000000, -606.000000)" fill="#A8A8A8" fill-rule="nonzero">
            <g id="Group" transform="translate(46.000000, 598.000000)">
                <path id="Line-5" d="M179.527464,13 C179.776187,10.7500248 181.683723,9 184,9 C186.485281,9 188.5,11.0147186 188.5,13.5 C188.5,15.9852814 186.485281,18 184,18 C181.683723,18 179.776187,16.2499752 179.527464,14 L150.408753,14 L157.180918,17.8093429 L156.690657,18.6809184 L147.480136,13.5 L156.690657,8.31908161 L157.180918,9.19065715 L150.408753,13 L179.527464,13 Z M187.5,13.5 C187.5,11.5670034 185.932997,10 184,10 C182.067003,10 180.5,11.5670034 180.5,13.5 C180.5,15.4329966 182.067003,17 184,17 C185.932997,17 187.5,15.4329966 187.5,13.5 Z"></path>
            </g>
        </g>
    </g>
</svg>