
<svg viewBox="0 0 222 64" version="1.1" xmlns="http://www.w3.org/2000/svg" xmlns:xlink="http://www.w3.org/1999/xlink">
    <g id="Page-1" stroke="none" stroke-width="1" fill="none" fill-rule="evenodd">
        <g id="HOMEPAGE-01" transform="translate(-609.000000, -72.000000)" fill="#292929">
            <g id="Group-25" transform="translate(609.000000, 72.000000)">
                <path d="M8.12183481,10.7605113 L4.06118143,10.7605113 L4.06118143,29.0757278 L8.08949215,29.0757278 C14.9058718,29.0757278 17.7421246,24.259233 17.7421246,19.9422021 C17.7421246,15.9313155 14.9382144,10.7605113 8.12183481,10.7605113 M8.26704673,32.8451299 L-0.000132010838,32.8451299 L-0.000132010838,7.00760412 L8.20236142,7.00760412 C18.1454177,7.00760412 21.996834,14.5622433 21.996834,19.9422021 C21.996834,25.8862845 17.8068099,32.8451299 8.26704673,32.8451299" id="Fill-2"></path>
                <path d="M36.126416,5.02597938 C36.126416,6.20173196 37.0933954,7.20065979 38.3824812,7.20065979 C39.6715671,7.20065979 40.6385464,6.20173196 40.6385464,5.02597938 C40.6385464,3.93072165 39.5910404,2.89946392 38.3824812,2.89946392 C37.076894,2.89946392 36.126416,3.8502268 36.126416,5.02597938 L36.126416,5.02597938 Z M43.2814034,23.1637113 L38.3666399,10.9054021 L33.4677177,23.1637113 L43.2814034,23.1637113 Z M32.03342,26.7879588 L29.6486442,32.844866 L25.5068041,32.844866 L35.3693338,8.60206186 C34.2894852,7.76412371 33.5964283,6.47554639 33.5964283,5.02597938 C33.5964283,2.51282474 35.7878082,0.467463918 38.3824812,0.467463918 C41.0411795,0.467463918 43.1843755,2.51282474 43.1843755,5.02597938 C43.1843755,6.47554639 42.5078199,7.74828866 41.4603139,8.5862268 L51.2739996,32.844866 L47.0357917,32.844866 L44.6833585,26.7879588 L32.03342,26.7879588 Z" id="Fill-5"></path>
                <path d="M72.2843826,15.0774763 C72.2843826,13.1119505 71.4144312,10.7604454 67.1762232,10.7604454 L61.9551946,10.7604454 L61.9551946,19.3945072 L67.1762232,19.3945072 C71.0916647,19.3945072 72.2843826,17.091167 72.2843826,15.0774763 L72.2843826,15.0774763 Z M61.9551946,32.8450639 L57.8938811,32.8450639 L57.8938811,7.00753814 L67.6111989,7.00753814 C74.1054721,7.00753814 76.4097213,10.9537649 76.4097213,14.9811464 C76.4097213,18.2669196 74.7180024,21.0050639 71.3174032,22.2131464 L77.0380929,32.8450639 L72.5583051,32.8450639 L67.3372764,23.0352495 L61.9551946,23.0352495 L61.9551946,32.8450639 Z" id="Fill-8"></path>
                <polygon id="Fill-10" points="81.7887669 10.7605113 81.7887669 7.00760412 102.270248 7.00760412 102.270248 10.7605113 94.0519137 10.7605113 94.0519137 32.8451299 89.9912603 32.8451299 89.9912603 10.7605113"></polygon>
                <path d="M123.216804,15.0774763 C123.216804,13.1119505 122.346853,10.7604454 118.108645,10.7604454 L112.887616,10.7604454 L112.887616,19.3945072 L118.108645,19.3945072 C122.024086,19.3945072 123.216804,17.091167 123.216804,15.0774763 L123.216804,15.0774763 Z M112.887616,32.8450639 L108.826303,32.8450639 L108.826303,7.00753814 L118.543621,7.00753814 C125.037894,7.00753814 127.342143,10.9537649 127.342143,14.9811464 C127.342143,18.2669196 125.650424,21.0050639 122.249825,22.2131464 L127.970514,32.8450639 L123.490727,32.8450639 L118.269698,23.0352495 L112.887616,23.0352495 L112.887616,32.8450639 Z" id="Fill-12"></path>
                <polygon id="Fill-14" points="135.863574 32.8445361 139.924228 32.8445361 139.924228 7.00701031 135.863574 7.00701031"></polygon>
                <polygon id="Fill-16" points="158.695377 28.1735258 166.446393 7.00734021 170.749287 7.00734021 160.951442 32.844866 156.2941 32.844866 146.480414 7.00734021 150.992545 7.00734021"></polygon>
                <polygon id="Fill-17" points="193.85488 10.6799505 181.365994 10.6799505 181.365994 17.8644454 192.726847 17.8644454 192.726847 21.5368577 181.365994 21.5368577 181.365994 29.1561567 193.98359 29.1561567 193.98359 32.8450639 177.305341 32.8450639 177.305341 7.00753814 193.85488 7.00753814"></polygon>
                <path d="M216.879418,15.0774763 C216.879418,13.1119505 216.009467,10.7604454 211.771259,10.7604454 L206.55023,10.7604454 L206.55023,19.3945072 L211.771259,19.3945072 C215.6867,19.3945072 216.879418,17.091167 216.879418,15.0774763 L216.879418,15.0774763 Z M206.55023,32.8450639 L202.488916,32.8450639 L202.488916,7.00753814 L212.206234,7.00753814 C218.700507,7.00753814 221.004757,10.9537649 221.004757,14.9811464 C221.004757,18.2669196 219.313038,21.0050639 215.912439,22.2131464 L221.633128,32.8450639 L217.15334,32.8450639 L211.932312,23.0352495 L206.55023,23.0352495 L206.55023,32.8450639 Z" id="Fill-18"></path>
                <polygon id="Fill-19" points="79.7763937 54.9847093 79.7763937 62.4384 83.7004159 62.4384 83.7004159 63.2525856 78.9104026 63.2525856 78.9104026 54.9847093"></polygon>
                <path d="M91.2621947,55.7115381 C89.3592584,55.7115381 88.0186884,57.2475381 88.0186884,59.0982598 C88.0186884,60.9588784 89.3645389,62.5258887 91.2879368,62.5258887 C93.190873,62.5258887 94.5314431,60.995167 94.5314431,59.1444454 C94.5314431,57.2838268 93.1855926,55.7115381 91.2621947,55.7115381 M91.2621947,63.340734 C88.8899599,63.340734 87.1163943,61.4999093 87.1163943,59.1444454 C87.1163943,56.7731464 88.8952404,54.9019711 91.2879368,54.9019711 C93.6601716,54.9019711 95.4337372,56.7421361 95.4337372,59.0982598 C95.4337372,61.4695588 93.6601716,63.340734 91.2621947,63.340734" id="Fill-20"></path>
                <polygon id="Fill-21" points="107.059008 63.2527835 106.11051 63.2527835 101.175285 56.2167423 101.175285 63.2527835 100.319194 63.2527835 100.319194 54.9849072 101.319836 54.9849072 106.202917 61.9331959 106.202917 54.9849072 107.059008 54.9849072"></polygon>
                <path d="M114.95649,62.438334 C117.044901,62.438334 118.452797,61.0514474 118.452797,59.1241897 C118.452797,57.2272825 117.096386,55.7988289 114.945929,55.7988289 L113.394142,55.7988289 L113.394142,62.438334 L114.95649,62.438334 Z M114.987513,54.9846433 C117.565684,54.9846433 119.355091,56.768066 119.355091,59.1030763 C119.355091,61.5674062 117.411232,63.2525196 114.987513,63.2525196 L112.527491,63.2525196 L112.527491,54.9846433 L114.987513,54.9846433 Z" id="Fill-22"></path>
                <path d="M127.803719,55.7115381 C125.900783,55.7115381 124.560212,57.2475381 124.560212,59.0982598 C124.560212,60.9588784 125.906063,62.5258887 127.829461,62.5258887 C129.732397,62.5258887 131.072967,60.995167 131.072967,59.1444454 C131.072967,57.2838268 129.727117,55.7115381 127.803719,55.7115381 M127.803719,63.340734 C125.431484,63.340734 123.657918,61.4999093 123.657918,59.1444454 C123.657918,56.7731464 125.436764,54.9019711 127.829461,54.9019711 C130.201696,54.9019711 131.975261,56.7421361 131.975261,59.0982598 C131.975261,61.4695588 130.201696,63.340734 127.803719,63.340734" id="Fill-23"></path>
                <polygon id="Fill-24" points="143.600532 63.2527835 142.652034 63.2527835 137.716809 56.2167423 137.716809 63.2527835 136.860718 63.2527835 136.860718 54.9849072 137.86136 54.9849072 142.744441 61.9331959 142.744441 54.9849072 143.600532 54.9849072"></polygon>
                <polygon id="Fill-1" points="0 42.6470928 221.632996 42.6470928 221.632996 40.9639588 0 40.9639588"></polygon>
            </g>
        </g>
    </g>
</svg>