<svg viewBox="0 0 39 49" version="1.1" xmlns="http://www.w3.org/2000/svg" xmlns:xlink="http://www.w3.org/1999/xlink">
    <g id="Page-1" stroke="none" stroke-width="1" fill="none" fill-rule="evenodd">
        <g id="HOMEPAGE-01" transform="translate(-42.000000, -207.000000)" fill="#E9DDCF">
            <path d="M58,214.460807 C58,216.374291 59.5001463,218 61.5,218 C63.4998537,218 65,216.374291 65,214.460807 C65,212.678325 63.3749269,211 61.5,211 C59.4745465,211 58,212.547323 58,214.460807 L58,214.460807 Z M69,242 L61.4878935,223 L54,242 L69,242 Z M51.8783749,246.833469 L48.2688918,256 L42,256 L56.9274553,219.31091 C55.2930478,218.042774 54.2440699,216.092639 54.2440699,213.898863 C54.2440699,210.095452 57.5608382,207 61.4880117,207 C65.5120908,207 68.7559301,210.095452 68.7559301,213.898863 C68.7559301,216.092639 67.7319279,218.018809 66.1464727,219.286946 L81,256 L74.5852503,256 L71.0247195,246.833469 L51.8783749,246.833469 Z" id="Fill-1"></path>
        </g>
    </g>
</svg>